<?xml version="1.0" encoding="UTF-8"?>
<svg width="30px" height="42px" viewBox="0 0 30 42" version="1.1" xmlns="http://www.w3.org/2000/svg" xmlns:xlink="http://www.w3.org/1999/xlink">
    <!-- Generator: Sketch 48.2 (47327) - http://www.bohemiancoding.com/sketch -->
    <title>backend</title>
    <desc>Created with Sketch.</desc>
    <defs></defs>
    <g id="Page-1" stroke="none" stroke-width="1" fill="none" fill-rule="evenodd">
        <g id="backend" fill="#191919" fill-rule="nonzero">
            <path d="M21.801448,0 L2.17710407,0 C1.04864253,0 0.133574661,0.914932127 0.133574661,2.04339367 L0.133574661,39.2192308 C0.133574661,40.3476923 1.04850679,41.2626244 2.17710407,41.2626244 L27.9544344,41.2626244 C29.0830317,41.2626244 29.9979638,40.3476923 29.9979638,39.2192308 L29.9979638,8.19651584 L21.801448,0 Z M11.7579638,22.9527149 C12.1641176,23.2897738 12.2200452,23.8922172 11.8828507,24.2985068 C11.6938914,24.5260181 11.4215837,24.6434389 11.1473756,24.6434389 C10.93181,24.6434389 10.7157014,24.5714932 10.5373303,24.4233937 L6.85466063,21.3666516 C6.63570136,21.1847511 6.50918552,20.9157014 6.50918552,20.6311765 C6.50918552,20.3470588 6.63570136,20.0776018 6.85466063,19.8959729 L10.5373303,16.8393665 C10.9433484,16.5023077 11.5456561,16.558371 11.8828507,16.9643891 C12.2200452,17.3704072 12.1641176,17.9731222 11.7579638,18.3100452 L8.96117647,20.6311765 L11.7579638,22.9527149 Z M17.739095,14.8345249 L14.228552,26.9599548 C14.1070588,27.37819 13.7256109,27.649819 13.310905,27.649819 C13.2229412,27.649819 13.1334842,27.6376018 13.0447059,27.6119457 C12.5378281,27.4652036 12.2458371,26.9356561 12.3927149,26.4282353 L15.9029864,14.3029412 C16.0498643,13.7960633 16.5795475,13.5042081 17.0868326,13.650543 C17.5937104,13.7976923 17.8857014,14.3273756 17.739095,14.8345249 Z M23.2767421,21.3666516 L19.5943439,24.4233937 C19.4157014,24.5713575 19.1993213,24.6434389 18.9844344,24.6434389 C18.710362,24.6434389 18.4377828,24.5260181 18.2486878,24.2985068 C17.911629,23.8922172 17.9674208,23.2897738 18.3735747,22.9527149 L21.1702262,20.6311765 L18.3735747,18.3100452 C17.9674208,17.9731222 17.911629,17.3704072 18.2486878,16.9643891 C18.5857466,16.558371 19.1883258,16.5023077 19.5943439,16.8393665 L23.2767421,19.8959729 C23.4958371,20.0776018 23.6223529,20.3470588 23.6223529,20.6311765 C23.6223529,20.9157014 23.4958371,21.1847511 23.2767421,21.3666516 Z M21.0366516,9.48475113 C20.6769231,9.48475113 20.3853394,9.19343891 20.3853394,8.83357466 L20.3853394,2.58 L27.2922624,9.48475113 L21.0366516,9.48475113 Z" id="Shape"></path>
        </g>
    </g>
</svg>