<?xml version="1.0" encoding="UTF-8"?>
<svg width="30px" height="30px" viewBox="0 0 30 30" version="1.1" xmlns="http://www.w3.org/2000/svg" xmlns:xlink="http://www.w3.org/1999/xlink">
    <!-- Generator: Sketch 48.2 (47327) - http://www.bohemiancoding.com/sketch -->
    <title>concepting</title>
    <desc>Created with Sketch.</desc>
    <defs></defs>
    <g id="Page-1" stroke="none" stroke-width="1" fill="none" fill-rule="evenodd">
        <g id="concepting" fill="#191919" fill-rule="nonzero">
            <path d="M2.91077419,16.7355484 C5.20383871,13.4347742 6.55267742,11.3082581 7.53609677,9.73674194 C3.75677419,10.071 0.134225806,14.7736452 0.134225806,14.7736452 L2.62877419,17.2680968 C2.70116129,17.0836452 2.79358065,16.9045161 2.91077419,16.7355484 Z" id="Shape"></path>
            <path d="M12.6506129,27.2900323 L15.1435161,29.7828387 C15.1435161,29.7828387 19.8459677,26.1605806 20.1803226,22.3813548 C18.6092903,23.3643871 16.4834516,24.7127419 13.1816129,27.0063871 C13.0145806,27.1223226 12.8365161,27.2169677 12.6506129,27.2900323 Z" id="Shape"></path>
            <path d="M8.85958065,26.0010968 C8.43164516,26.1740323 8.01106452,26.3578065 7.57258065,26.5043226 C6.40141935,26.8957742 5.19522581,27.1602581 3.97229032,27.3290323 C3.45967742,27.3997742 2.94232258,27.4597742 2.42409677,27.4990645 C2.42903226,27.4350968 2.43377419,27.3710323 2.43919355,27.3071613 C2.54612903,26.0610968 2.73570968,24.8215161 3.042,23.6081613 C3.18958065,23.0225806 3.37790323,22.4533548 3.58006452,21.8849032 C3.70577419,21.5314839 3.86264516,21.1932581 4.02087097,20.8550323 L3.7466129,20.5809677 C3.13664516,20.9907097 2.60612903,21.5084516 2.15593548,22.0942258 C1.48945161,22.9616129 0.989903226,23.9442581 0.640645161,24.9797419 C0.265451613,26.0915806 0.0417096774,27.269129 0.00687096774,28.443 C0.00193548387,28.6079032 -0.00938709677,28.7763871 0.0161612903,28.9400323 C0.0490645161,29.1513871 0.141870968,29.3514194 0.281322581,29.5135161 C0.419322581,29.673871 0.600967742,29.7949355 0.802258065,29.859871 C0.971225806,29.9143548 1.14116129,29.9153226 1.31641935,29.9139677 C2.38209677,29.9050645 3.46432258,29.7199355 4.48441935,29.4168387 C6.35012903,28.8625161 8.23364516,27.8196774 9.33764516,26.1718065 L9.07074194,25.9050968 C9.00077419,25.938 8.9306129,25.9702258 8.85958065,26.0010968 Z" id="Shape"></path>
            <path d="M29.6132903,0.304741935 C29.6132903,0.304741935 29.6130968,0.304645161 29.6129032,0.304451613 C29.4187742,0.110419355 29.1556452,0.00174193548 28.8817742,0.00174193548 C28.875,0.00174193548 28.868129,0.00183870968 28.8613548,0.00193548387 C25.5313548,0.0672580645 17.3155161,0.690096774 12.9523548,5.05345161 C10.9716774,7.03412903 10.3279355,8.06516129 8.91696774,10.3246452 C7.90083871,11.9514194 6.50970968,14.1796452 3.96725806,17.8390645 C3.68167742,18.2503548 3.73132258,18.8070968 4.08541935,19.161 L10.755871,25.8315484 C10.956,26.0317742 11.2210645,26.1347419 11.487871,26.1347419 C11.6929355,26.1347419 11.8989677,26.0739677 12.0778065,25.9498065 C15.7385806,23.4067742 17.9659355,22.0159355 19.592129,21.0001935 C21.8514194,19.5893226 22.8826452,18.9453871 24.8637097,16.9645161 C29.2346129,12.5934194 29.8530968,4.383 29.9158065,1.05580645 C29.9213226,0.774870968 29.8119677,0.503709677 29.6132903,0.304741935 Z M21.8890645,12.8909032 C20.546129,14.2337419 18.3690968,14.2337419 17.0261613,12.8909032 C15.6830323,11.5479677 15.6832258,9.37103226 17.0263548,8.02819355 C18.3690968,6.68525806 20.546129,6.68506452 21.8890645,8.02790323 C23.2316129,9.37074194 23.2318065,11.5481613 21.8890645,12.8909032 Z" id="Shape"></path>
        </g>
    </g>
</svg>