<?xml version="1.0" encoding="UTF-8"?>
<svg width="30px" height="30px" viewBox="0 0 30 30" version="1.1" xmlns="http://www.w3.org/2000/svg" xmlns:xlink="http://www.w3.org/1999/xlink">
    <!-- Generator: Sketch 48.2 (47327) - http://www.bohemiancoding.com/sketch -->
    <title>design</title>
    <desc>Created with Sketch.</desc>
    <defs></defs>
    <g id="Page-1" stroke="none" stroke-width="1" fill="none" fill-rule="evenodd">
        <g id="design" fill="#191919" fill-rule="nonzero">
            <path d="M29.4598966,9.58293103 L20.417069,0.540206897 C19.6968621,-0.180103448 18.5288276,-0.180103448 17.8084138,0.540206897 L17.7237931,0.624827586 C17.0033793,1.34513793 17.0034828,2.51317241 17.7237931,3.23348276 L17.8512414,3.36093103 L10.116,9.86596552 L9.88965517,9.63951724 C9.64013793,9.39 9.30093103,9.258 8.90855172,9.258 C8.26562069,9.258 7.51655172,9.62317241 6.90486207,10.2348621 L6.38151724,10.7582069 C6.25344828,10.8861724 6.18165517,11.0597586 6.18165517,11.2407931 C6.18165517,11.4217241 6.25344828,11.5954138 6.38151724,11.7233793 L10.8312414,16.173 L0.261310345,28.0644828 C-0.102827586,28.4740345 -0.0842068966,29.0965862 0.303517241,29.4837931 L0.517655172,29.6975172 C0.718862069,29.8985172 0.983482759,30 1.24872414,30 C1.4937931,30 1.73937931,29.9133103 1.93582759,29.7386897 L13.8267931,19.1688621 L18.2766207,23.6186897 C18.4098621,23.751931 18.5844828,23.8185517 18.7592069,23.8185517 C18.9338276,23.8185517 19.1084483,23.751931 19.2417931,23.6186897 L19.7652414,23.0952414 C20.7856552,22.0747241 21.0415862,20.7914483 20.3604828,20.1102414 L20.1342414,19.8841034 L26.6391724,12.1489655 L26.7666207,12.2763103 C27.4868276,12.9966207 28.6547586,12.9966207 29.3749655,12.2761034 L29.4596897,12.1914828 C30.18,11.4711724 30.1801034,10.3033448 29.4598966,9.58293103 Z" id="Shape"></path>
        </g>
    </g>
</svg>