<?xml version="1.0" encoding="UTF-8"?>
<svg width="30px" height="35px" viewBox="0 0 30 35" version="1.1" xmlns="http://www.w3.org/2000/svg" xmlns:xlink="http://www.w3.org/1999/xlink">
    <!-- Generator: Sketch 48.2 (47327) - http://www.bohemiancoding.com/sketch -->
    <title>frontend</title>
    <desc>Created with Sketch.</desc>
    <defs></defs>
    <g id="Page-1" stroke="none" stroke-width="1" fill="none" fill-rule="evenodd">
        <g id="frontend" fill="#191919" fill-rule="nonzero">
            <path d="M27.3185978,4.96516605 C24.7440221,1.76335793 21.0243542,0 16.8446125,0 C13.8553506,0 10.8551292,0.935867159 8.39734317,2.63512915 C5.7699631,4.45162362 3.93055351,6.98180812 3.07815498,9.95247232 C2.74162362,11.1262362 2.56826568,12.1009594 2.41505535,12.961107 C2.09811808,14.7433948 1.86874539,16.0308487 0.458745387,18.1108118 C0.084797048,18.6624354 -0.0348708487,19.1901476 0.103394834,19.6790037 C0.32202952,20.4524723 1.06295203,20.7870111 1.65852399,21.0556827 C1.85723247,21.145572 2.1901107,21.2956827 2.26516605,21.3789299 C2.62317343,21.8274908 2.59184502,23.0697786 2.56416974,24.165941 C2.52476015,25.7301476 2.48391144,27.3476015 3.2604797,28.5150554 C4.34656827,30.1473432 6.02623616,30.1650554 7.37579336,30.1793358 C8.95915129,30.1960517 9.68169742,30.2038007 9.84653137,31.9679336 C9.8498524,32.0114391 9.85660517,32.1999631 9.86258303,32.3663469 C9.90498155,33.5291513 9.92335793,33.6870111 9.98291513,33.8567159 C10.100369,34.1899262 10.4150923,34.4127675 10.7684502,34.4127675 L25.617786,34.4127675 C25.9042804,34.4127675 26.1706273,34.2654244 26.3230627,34.0226568 C26.4754982,33.7798893 26.4921033,33.4757934 26.3675646,33.2177491 C24.4956089,29.3414391 26.028155,25.362952 27.6508118,21.1507749 C28.6369373,18.5907011 29.6568266,15.9436162 29.888524,13.2642066 C30.1565314,10.1638007 29.3158672,7.44907749 27.3185978,4.96516605 Z M13.9476753,14.0002583 C14.3157565,14.3053506 14.3662362,14.8512177 14.0605904,15.2192989 C13.8895572,15.4253137 13.642583,15.5315867 13.3941697,15.5315867 C13.1992251,15.5315867 13.0032841,15.4662731 12.8417712,15.3321033 L9.50623616,12.5634686 C9.30819188,12.3987454 9.19372694,12.1548708 9.19372694,11.8972694 C9.19372694,11.64 9.30819188,11.3960148 9.50623616,11.2314022 L12.8417712,8.46254613 C13.209631,8.15723247 13.7558303,8.20804428 14.0605904,8.57590406 C14.3663469,8.94376384 14.3158672,9.489631 13.9476753,9.79483395 L11.4145018,11.8971587 L13.9476753,14.0002583 Z M19.3653875,6.64682657 L16.1853875,17.6298155 C16.0749077,18.008524 15.7298524,18.2547232 15.3539114,18.2547232 C15.2739852,18.2547232 15.1932841,18.2435424 15.1126937,18.2202952 C14.6535055,18.0875646 14.3894834,17.6076753 14.522214,17.148155 L17.7019926,6.16527675 C17.8351661,5.70630996 18.3151661,5.44184502 18.7745756,5.57457565 C19.2336531,5.70763838 19.497786,6.18741697 19.3653875,6.64682657 Z M24.3810332,12.5634686 L21.0454982,15.3321033 C20.8837638,15.4662731 20.6880443,15.5315867 20.4930996,15.5315867 C20.2445756,15.5315867 19.9977122,15.4253137 19.826679,15.2192989 C19.5213653,14.8512177 19.5714022,14.3053506 19.9395941,14.0002583 L22.4727675,11.8973801 L19.9395941,9.79505535 C19.5715129,9.4898524 19.521476,8.94398524 19.826679,8.57612546 C20.1318819,8.20826568 20.6778598,8.15745387 21.0454982,8.46276753 L24.3810332,11.2316236 C24.5791882,11.3961255 24.6936531,11.6401107 24.6936531,11.8974908 C24.6936531,12.1549815 24.5791882,12.3987454 24.3810332,12.5634686 Z" id="Shape"></path>
        </g>
    </g>
</svg>