<?xml version="1.0" encoding="UTF-8"?>
<svg width="62px" height="57px" viewBox="0 0 62 57" version="1.1" xmlns="http://www.w3.org/2000/svg" xmlns:xlink="http://www.w3.org/1999/xlink">
    <!-- Generator: Sketch 48.2 (47327) - http://www.bohemiancoding.com/sketch -->
    <title>Group</title>
    <desc>Created with Sketch.</desc>
    <defs>
        <polygon id="path-1" points="0 11.8877005 38.0289956 11.8877005 38.0289956 0.0214136063 0 0.0214136063"></polygon>
    </defs>
    <g id="Desktop-HD" stroke="none" stroke-width="1" fill="none" fill-rule="evenodd" transform="translate(-443.000000, -362.000000)">
        <g id="Group" transform="translate(443.000000, 362.000000)">
            <rect id="Rectangle-5" fill="#191919" x="0" y="0" width="61.8770053" height="57"></rect>
            <g id="Page-1" transform="translate(11.887701, 22.556150)">
                <polygon id="Fill-1" fill="#FFFFFF" points="0 8.83957219 1.82887701 8.83957219 1.82887701 0 0 0"></polygon>
                <polygon id="Fill-2" fill="#FFFFFF" points="2.13368984 5.00250299 4.39558395 2.13368984 6.70588235 2.13368984 3.73032097 5.52294161 6.70588235 8.83957219 4.43182795 8.83957219 2.13368984 6.04353826"></polygon>
                <g id="Group-13">
                    <path d="M9.7682289,4.00097488 C9.46237766,3.73566659 9.09310362,3.60293373 8.66080617,3.60293373 C8.22834897,3.60293373 7.8673822,3.73558787 7.57798574,4.00097488 C7.28834965,4.26628316 7.11493543,4.62015875 7.05798271,5.06212928 L10.2637095,5.06212928 C10.2391871,4.62015875 10.0740801,4.26628316 9.7682289,4.00097488 M8.63644351,9.04159608 C7.64939629,9.04159608 6.84582787,8.72621775 6.22605775,8.09506745 C5.60604799,7.46399588 5.29612299,6.62980995 5.29612299,5.59282458 C5.29612299,4.55568175 5.60820469,3.72566833 6.23220832,3.10254813 C6.85613208,2.47966411 7.66377426,2.16798593 8.65481536,2.16798593 C9.64593633,2.16798593 10.4595693,2.47155529 11.0957942,3.07845782 C11.732099,3.68567527 12.0501715,4.49537726 12.0501715,5.50835105 C12.0501715,5.74161765 12.0337966,5.95874532 12.0012864,6.15965533 L7.05798271,6.15965533 C7.09872028,6.59375322 7.26183029,6.94353503 7.54739263,7.20868586 C7.83287509,7.47399414 8.1958388,7.60672701 8.63636364,7.60672701 C9.23161134,7.60672701 9.6720563,7.36543031 9.95777839,6.88307308 L11.817568,6.88307308 C11.6217082,7.51823843 11.2424495,8.03680985 10.6795522,8.4387086 C10.1168945,8.84084352 9.43569855,9.04159608 8.63644351,9.04159608" id="Fill-3" fill="#FFFFFF"></path>
                    <path d="M14.0123562,2.26437865 L14.0123562,3.26546474 C14.4446537,2.53393816 15.1460587,2.16793869 16.1168907,2.16793869 C16.8917831,2.16793869 17.5239343,2.41946984 18.0134241,2.92174487 C18.502834,3.42417735 18.7475789,4.12169408 18.7475789,5.01405889 L18.7475789,8.94518762 L17.0346042,8.94518762 L17.0346042,5.25511941 C17.0346042,4.7326904 16.9000904,4.33260236 16.6308231,4.0551702 C16.3616356,3.77789548 15.9945183,3.63910068 15.5296308,3.63910068 C15.0647433,3.63910068 14.6954693,3.77789548 14.4223678,4.0551702 C14.1489469,4.33260236 14.0124361,4.73261167 14.0124361,5.25511941 L14.0124361,8.94518762 L12.2872402,8.94518762 L12.2872402,2.26437865 L14.0123562,2.26437865 Z" id="Fill-5" fill="#FFFFFF"></path>
                    <polygon id="Fill-7" fill="#FFFFFF" points="23.8339433 2.26437865 23.8339433 3.65114583 20.9829529 7.54645401 23.8339433 7.54645401 23.8339433 8.94518762 18.9764281 8.94518762 18.9764281 7.54645401 21.8394801 3.65114583 18.9764281 3.65114583 18.9764281 2.26437865"></polygon>
                    <mask id="mask-2" fill="white">
                        <use xlink:href="#path-1"></use>
                    </mask>
                    <g id="Clip-10"></g>
                    <polygon id="Fill-9" fill="#FFFFFF" mask="url(#mask-2)" points="24.0648774 8.94521911 25.7900733 8.94521911 25.7900733 2.26441014 24.0648774 2.26441014"></polygon>
                    <path d="M30.8131668,7.04586372 C31.1719768,6.69608191 31.3515416,6.2158503 31.3515416,5.60477526 C31.3515416,4.99401512 31.1719768,4.51346861 30.8131668,4.16368679 C30.4541171,3.81406244 30.0341208,3.63913217 29.5529382,3.63913217 C29.0715161,3.63913217 28.6536765,3.81209427 28.2987804,4.15762485 C27.9438843,4.50339161 27.7665561,4.98189124 27.7665561,5.59273011 C27.7665561,6.20380515 27.9458813,6.68616238 28.304931,7.03980178 C28.6636612,7.39367737 29.0819002,7.57033963 29.5590089,7.57033963 C30.0362775,7.57041835 30.4541171,7.39564554 30.8131668,7.04586372 M26.9284007,8.0709614 C26.3206921,7.42390835 26.0168378,6.59775252 26.0168378,5.59273011 C26.0168378,4.58786514 26.3185354,3.76572437 26.92233,3.12662269 C27.525885,2.48752102 28.2927097,2.16789145 29.2225646,2.16789145 C30.1524993,2.16789145 30.8621317,2.54593608 31.3516215,3.30147424 L31.3516215,2.26441014 L33.064676,2.26441014 L33.064676,8.63180894 C33.064676,9.58833584 32.7788741,10.3700899 32.2081488,10.9771499 C31.637104,11.5841312 30.8356124,11.8877005 29.8038337,11.8877005 C28.7718154,11.8877005 27.9521117,11.6766348 27.3445629,11.2545821 C26.7366945,10.8325293 26.3921026,10.2314526 26.3106275,9.45174537 L27.9991596,9.45174537 C28.1050773,9.74909534 28.3090047,9.98417265 28.6108621,10.1571348 C28.9125597,10.3298607 29.2918184,10.4164598 29.7487182,10.4164598 C30.2056179,10.4164598 30.5869535,10.267588 30.8928047,9.97023806 C31.198656,9.67273064 31.3516215,9.2265876 31.3516215,8.63173021 L31.3516215,7.82368148 C30.8376892,8.63582399 30.1239032,9.04158034 29.2105031,9.04158034 C28.2966237,9.04165906 27.5359495,8.7181719 26.9284007,8.0709614" id="Fill-11" fill="#FFFFFF" mask="url(#mask-2)"></path>
                    <path d="M33.293741,3.27183371 C33.7260384,2.54030713 34.4274434,2.17438639 35.3983554,2.17438639 C36.1732477,2.17438639 36.805319,2.42583881 37.2948887,2.92811384 C37.7842986,3.43062505 38.0289636,4.12806306 38.0289636,5.02042786 L38.0289636,8.95163532 L36.3160688,8.95163532 L36.3160688,5.26148838 C36.3160688,4.73905937 36.1814751,4.33897133 35.9122078,4.06153917 C35.6430204,3.78426446 35.275903,3.64546965 34.8110155,3.64546965 C34.3462079,3.64546965 34.0008173,3.80914203 33.7038324,4.06153917 C33.541681,4.19938926 33.2938208,4.50091173 33.2938208,4.50091173 L33.2938208,3.27183371 L33.293741,3.27183371 Z" id="Fill-12" fill="#FFFFFF" mask="url(#mask-2)"></path>
                </g>
            </g>
        </g>
    </g>
</svg>